<?xml version="1.0" encoding="UTF-8" standalone="no"?>
<!DOCTYPE svg PUBLIC "-//W3C//DTD SVG 1.1//EN" "http://www.w3.org/Graphics/SVG/1.1/DTD/svg11.dtd">
<svg width="100%" height="100%" viewBox="0 0 379 186" version="1.1" xmlns="http://www.w3.org/2000/svg" xmlns:xlink="http://www.w3.org/1999/xlink" xml:space="preserve" style="fill-rule:evenodd;clip-rule:evenodd;stroke-linejoin:round;stroke-miterlimit:1.41421;">
    <g transform="matrix(0.264244,0,0,1.60012,-174.995,-1128.44)">
        <path d="M2088.55,712.715C2088.55,709.117 2070.86,706.196 2049.07,706.196L706.477,706.196C684.689,706.196 667,709.117 667,712.715L667,813.594C667,817.192 684.689,820.113 706.477,820.113L2049.07,820.113C2070.86,820.113 2088.55,817.192 2088.55,813.594L2088.55,712.715Z" style="fill:white;"/>
    </g>
    <g transform="matrix(2.91505,0,0,0.420959,-4245.7,-242.983)">
        <rect x="1456.91" y="689.196" width="128.861" height="110.615" style="fill:rgb(179,179,179);fill-opacity:0.14902;"/>
    </g>
    <g transform="matrix(0.617994,0,0,1.6479,-899.105,-1134.16)">
        <path d="M1585.77,689.196L1474.28,689.196L1460.24,691.165L1456.91,695.868L1456.91,793.774L1461.12,798.12L1470.31,799.81L1585.77,799.81L1585.77,689.196Z" style="fill:rgb(179,179,179);fill-opacity:0.14902;"/>
    </g>
    <g transform="matrix(1,0,0,1,-0.547362,0.56183)">
        <path d="M367.154,0.001C367.543,0.008 367.931,0.03 368.317,0.075C369.164,0.171 370,0.364 370.804,0.647C372.411,1.214 373.884,2.145 375.088,3.35C376.26,4.521 377.173,5.946 377.744,7.502C378.036,8.301 378.239,9.133 378.346,9.977C378.401,10.411 378.429,10.847 378.437,11.284C378.779,65.188 378.779,119.094 378.437,172.998C378.429,173.435 378.401,173.87 378.346,174.304C378.239,175.149 378.036,175.98 377.744,176.779C377.158,178.379 376.209,179.839 374.991,181.029C373.805,182.187 372.368,183.083 370.804,183.635C370,183.918 369.164,184.11 368.317,184.207C367.931,184.251 367.543,184.273 367.154,184.281C248.801,185.031 130.44,185.031 12.087,184.281C11.65,184.273 11.214,184.245 10.78,184.19C9.936,184.082 9.104,183.88 8.305,183.587C6.663,182.986 5.168,182.002 3.961,180.736C2.848,179.569 1.986,178.169 1.45,176.648C1.166,175.844 0.974,175.008 0.877,174.161C0.833,173.774 0.811,173.387 0.804,172.998C0.462,119.094 0.462,65.188 0.804,11.284C0.811,10.895 0.833,10.507 0.877,10.121C0.974,9.274 1.166,8.438 1.45,7.634C2.001,6.07 2.898,4.633 4.056,3.447C5.246,2.229 6.706,1.28 8.305,0.694C9.104,0.402 9.936,0.199 10.78,0.092C11.214,0.037 11.65,0.009 12.087,0.001C130.44,-0.749 248.801,-0.749 367.154,0.001ZM188.62,182.844L188.62,140.535L80.669,140.535L80.669,182.631C116.652,182.772 152.636,182.842 188.62,182.844ZM298.572,182.631L298.572,140.535L190.62,140.535L190.62,182.844C226.604,182.842 262.588,182.772 298.572,182.631ZM2.639,140.535C2.68,151.347 2.735,162.16 2.804,172.972C2.81,173.294 2.828,173.614 2.864,173.934C2.944,174.632 3.103,175.32 3.336,175.983C3.778,177.238 4.49,178.393 5.408,179.356C6.404,180.4 7.638,181.213 8.993,181.709C9.652,181.951 10.337,182.117 11.033,182.206C11.391,182.252 11.751,182.274 12.112,182.281C34.298,182.422 56.483,182.536 78.669,182.624L78.669,140.535L2.639,140.535ZM376.601,140.535L300.572,140.535L300.572,182.624C322.758,182.536 344.943,182.422 367.129,182.281C367.45,182.275 367.771,182.257 368.09,182.22C368.788,182.14 369.477,181.982 370.139,181.748C371.43,181.293 372.615,180.553 373.594,179.597C374.599,178.616 375.382,177.411 375.866,176.091C376.107,175.433 376.274,174.747 376.362,174.052C376.408,173.693 376.43,173.333 376.437,172.972C376.506,162.16 376.561,151.347 376.601,140.535ZM376.693,94.143L300.572,94.143L300.572,138.535L376.609,138.535C376.663,123.738 376.691,108.94 376.693,94.143ZM2.548,94.143C2.55,108.94 2.578,123.737 2.632,138.535L78.669,138.535L78.669,94.143L2.548,94.143ZM298.572,94.143L190.62,94.143L190.62,138.535L298.572,138.535L298.572,94.143ZM188.62,94.143L80.669,94.143L80.669,138.535L188.62,138.535L188.62,94.143ZM376.616,47.751L300.572,47.751L300.572,92.143L376.694,92.143C376.694,77.345 376.668,62.548 376.616,47.751ZM2.625,47.751C2.573,62.548 2.547,77.345 2.547,92.143L78.669,92.143L78.669,47.751L2.625,47.751ZM298.572,47.751L190.62,47.751L190.62,92.143L298.572,92.143L298.572,47.751ZM188.62,47.751L80.669,47.751L80.669,92.143L188.62,92.143L188.62,47.751ZM376.609,45.751C376.567,34.27 376.51,22.79 376.437,11.309C376.43,10.948 376.408,10.588 376.362,10.23C376.274,9.534 376.107,8.849 375.866,8.19C375.382,6.871 374.599,5.666 373.594,4.684C372.615,3.728 371.43,2.988 370.139,2.533C369.477,2.3 368.788,2.141 368.09,2.062C367.77,2.025 367.45,2.007 367.129,2.001C248.834,1.251 130.535,2 12.237,2C11.874,2.002 11.512,2.02 11.151,2.062C10.453,2.141 9.764,2.3 9.102,2.533C7.811,2.988 6.626,3.728 5.647,4.684C4.642,5.666 3.859,6.871 3.375,8.19C3.134,8.849 2.967,9.534 2.879,10.23C2.833,10.588 2.81,10.948 2.804,11.309C2.731,22.79 2.673,34.27 2.632,45.751L78.669,45.751L78.669,2.061L80.669,2.061L80.669,45.751L188.62,45.751L188.62,2.061L190.62,2.061L190.62,45.751L298.572,45.751L298.572,2.061L300.572,2.061L300.572,45.751L376.609,45.751Z" style="fill:rgb(179,179,179);"/>
    </g>
</svg>
